          =!HD DESI ROCKER RELEASES!=/=!DK GROUP HD BLURAY RELEAESEES!=

===================================================================================

        Ice Age-2 The Meltdown (2006) Bluray Rip In [Hindi-Eng] By !!!dip

===================================================================================

Storyline:

Manny the woolly mammoth, Sid the sloth, Diego the saber-toothed tiger, and the hapless prehistoric squirrel/rat known as Scrat are still together and enjoying the perks of their now melting world. Manny may be ready to start a family, but nobody has seen another mammoth for a long time; Manny thinks he may be the last one. That is, until he miraculously finds Ellie, the only female mammoth left in the world. Their only problems: They can't stand each other--and Ellie somehow thinks she's a possum! Ellie comes with some excess baggage in the form of her two possum "brothers"-- Crash and Eddie, a couple of daredevil pranksters and cocky, loud-mouthed troublemakers. Manny, Sid and Diego quickly learn that the warming climate has one major drawback: A huge glacial dam holding off oceans of water is about to break, threatening the entire valley. The only chance of survival lies at the other end of the valley... Written by gavin (gunmasterM@hotmail.com)
 

Cast:

Ray Romano..............Manny (voice)
John Leguizamo..........Sid (voice)
Denis Leary.............Diego (voice)
Seann William Scott.....Crash (voice)
Josh Peck...............Eddie (voice)
Queen Latifah...........Ellie (voice)
Will Arnett.............Lone Gunslinger Vulture (voice)
Jay Leno................Fast Tony (voice)
Chris Wedge.............Scrat (voice)
Peter Ackerman..........Dung Beetle Dad (voice)
Caitlin Rose Anderson...Glypto Boy Billy / Beaver Girl (voice)
Connor Anderson.........Rhino Boy / Beaver Boy (voice)
Joseph Bologna..........Mr. Start (voice)
Jack Crocicchia.........Elk Boy (voice)
Peter DeSève............Condor Chick (voice)

Directors               :Carlos Saldanha
Writers                 :Gerry Swallow , Peter Gaulke (screenplay)
Stars                   :Ray Romano, John Leguizamo and Denis Leary
Format                  :Color,MKV,Widescreen
Language                :Hindi-English
Release Date            :21 April 2006 (India)
Run Time                :1H:26M:53S
Color                   :Color
SUBTITLE                :English


Video Specifications:

Format: H.264/MPEG-4 AVC
Bitrate:448 kb/ps
Framerate:23.976 FPS

Release Title/Year/Language...:Ice Age-2 The Meltdown (2006) Bluray Rip In [Hindi-Eng] By !!!dip
Genre.....................: Animation | Action | Adventure  
Source....................: Bluray
Bit rate..................: 2 749 Kbps
Width.....................: 1280 pixels
Height....................: 688 pixels
Display aspect ratio......: 1.860
Frame rate................: 25.000 fps
Original frame rate.......: 23.976 fps
Color space...............: YUV
Chroma subsampling........: 4:2:0
Bit depth.................: 8 bits
Scan type.................: Progressive
Bits/(Pixel*Frame)........: 0.125
Stream size...............: 1.70 GiB (87%)
Title.....................: !!!dip
Resolution................: 1280 x 688 pixels
Team......................: DK GROUP HD BLURAY RELEAESEES/HD DESI ROCKER RELEAESEES


Audio Specifications:

Audio #1
ID                               : 2
Format                           : AC-3
Format/Info                      : Audio Coding 3
Mode extension                   : CM (complete main)
Muxing mode                      : Header stripping
Codec ID                         : A_AC3
Duration                         : 1h 26mn
Bit rate mode                    : Constant
Bit rate                         : 192 Kbps
Channel(s)                       : 2 channels
Channel positions                : Front: L R
Sampling rate                    : 48.0 KHz
Bit depth                        : 16 bits
Compression mode                 : Lossy
Delay relative to video          : 1s 0ms
Stream size                      : 119 MiB (6%)
Title                            : !!!dip
Language                         : English

Audio #2
ID                               : 3
Format                           : MPEG Audio
Format version                   : Version 1
Format profile                   : Layer 3
Muxing mode                      : Header stripping
Codec ID                         : A_MPEG/L3
Codec ID/Hint                    : MP3
Duration                         : 1h 26mn
Bit rate mode                    : Constant
Bit rate                         : 160 Kbps
Channel(s)                       : 2 channels
Sampling rate                    : 44.1 KHz
Compression mode                 : Lossy
Delay relative to video          : 1s 0ms
Stream size                      : 99.4 MiB (5%)
Title                            : !!!dip
Language                         : Hindi


SAMPLE IMAGE:
 
http://www.pix2links.com/images/77486439907537382207.jpg
 
http://www.pix2links.com/images/09728806023315237341.jpg
 
http://www.pix2links.com/images/97749038146252292270.jpg
 
http://www.pix2links.com/images/03423320931438959492.jpg
 
http://www.pix2links.com/images/39346522582718284767.jpg

SAMPLE VIDEO INCLUDED:
 